<svg aria-hidden="true" style="position: absolute; width: 0; height: 0; overflow: hidden;" version="1.1" xmlns="http://www.w3.org/2000/svg" xmlns:xlink="http://www.w3.org/1999/xlink">
<defs>
<symbol id="icon-facebook" viewBox="0 0 20 32">
<path fill="#5d5dff" style="fill: var(--color1, #5d5dff)" d="M6.046 32l-0.046-14h-6v-6h6v-4c0-5.398 3.343-8 8.159-8 2.307 0 4.289 0.172 4.867 0.248v5.642l-3.34 0.002c-2.619 0-3.126 1.245-3.126 3.071v3.038h7.44l-2 6h-5.44v14h-6.514z"></path>
</symbol>
<symbol id="icon-git" viewBox="0 0 34 32">
<path fill="#5d5dff" style="fill: var(--color1, #5d5dff)" d="M16 0.4c-8.8 0-16 7.2-16 16 0 7 4.6 13 11 15.2 0.8 0.2 1-0.4 1-0.8s0-1.4 0-2.8c-4.4 1-5.4-2-5.4-2-0.8-1.8-1.8-2.4-1.8-2.4-1.4-1 0.2-1 0.2-1 1.6 0.2 2.4 1.6 2.4 1.6 1.4 2.6 3.8 1.8 4.6 1.4 0.2-1 0.6-1.8 1-2.2-3.6-0.4-7.2-1.8-7.2-8 0-1.8 0.6-3.2 1.6-4.2-0.2-0.4-0.8-2 0.2-4.2 0 0 1.4-0.4 4.4 1.6 1.2-0.4 2.6-0.6 4-0.6s2.8 0.2 4 0.6c3-2 4.4-1.6 4.4-1.6 0.8 2.2 0.4 3.8 0.2 4.2 1 1.2 1.6 2.6 1.6 4.2 0 6.2-3.8 7.4-7.4 7.8 0.6 0.8 1.2 1.8 1.2 3.2 0 2.2 0 3.8 0 4.4 0 0.4 0.2 1 1.2 0.8 6.4-2.2 11-8.2 11-15.2-0.2-8.8-7.4-16-16.2-16z"></path>
</symbol>
<symbol id="icon-twit" viewBox="0 0 39 32">
<path fill="#5d5dff" style="fill: var(--color1, #5d5dff)" d="M39.385 3.692c-1.477 0.738-2.954 0.985-4.677 1.231 1.723-0.985 2.954-2.462 3.446-4.431-1.477 0.985-3.2 1.477-5.169 1.969-1.477-1.477-3.692-2.462-5.908-2.462-4.185 0-7.877 3.692-7.877 8.123 0 0.738 0 1.231 0.246 1.723-6.646-0.246-12.8-3.446-16.738-8.369-0.738 1.231-0.985 2.462-0.985 4.185 0 2.708 1.477 5.169 3.692 6.646-1.231 0-2.462-0.492-3.692-0.985 0 3.938 2.708 7.138 6.4 7.877-0.738 0.246-1.477 0.246-2.215 0.246-0.492 0-0.985 0-1.477-0.246 0.985 3.2 3.938 5.662 7.631 5.662-2.708 2.215-6.154 3.446-10.092 3.446-0.738 0-1.231 0-1.969 0 3.692 2.215 7.877 3.692 12.308 3.692 14.769 0 22.892-12.308 22.892-22.892 0-0.246 0-0.738 0-0.985 1.723-1.231 3.2-2.708 4.185-4.431z"></path>
</symbol>
<symbol id="icon-in" viewBox="0 0 34 32">
<path fill="#5d5dff" style="fill: var(--color1, #5d5dff)" d="M1.4 0h29.2c0.8 0 1.4 0.6 1.6 1.4v29.2c0 0.8-0.6 1.4-1.4 1.4h-29.4c-0.8 0-1.4-0.6-1.4-1.2v-29.4c0-0.8 0.6-1.4 1.4-1.4zM4.8 27.2h4.8v-15.2h-4.8v15.2zM7.2 10c-1.6 0-2.8-1.4-2.8-2.8 0-1.6 1.2-2.8 2.8-2.8s2.8 1.2 2.8 2.8c-0.2 1.4-1.4 2.8-2.8 2.8zM22.4 27.2h4.6v-8.4c0-4-0.8-7.2-5.6-7.2-2.2 0-3.8 1.2-4.4 2.4v-2h-4.6v15.4h4.8v-7.6c0-2 0.4-4 2.8-4s2.4 2.2 2.4 4v7.4z"></path>
</symbol>
<symbol id="icon-inst" viewBox="0 0 32 32">
<path fill="#5d5dff" style="fill: var(--color1, #5d5dff)" d="M26.21 7.784c0 1.060-0.86 1.92-1.92 1.92s-1.92-0.86-1.92-1.92c0-1.060 0.86-1.92 1.92-1.92s1.92 0.86 1.92 1.92z"></path>
<path fill="#5d5dff" style="fill: var(--color1, #5d5dff)" d="M8 16c0 4.412 3.588 8 8 8s8-3.588 8-8c0-4.412-3.588-8-8-8s-8 3.588-8 8zM12 16c0-2.206 1.794-4 4-4s4 1.794 4 4c0 2.206-1.794 4-4 4s-4-1.794-4-4z"></path>
<path fill="#5d5dff" style="fill: var(--color1, #5d5dff)" d="M8 32h16c4.112 0 8-3.888 8-8v-16c0-4.112-3.888-8-8-8h-16c-4.112 0-8 3.888-8 8v16c0 4.112 3.888 8 8 8zM4 8c0-1.87 2.13-4 4-4h16c1.87 0 4 2.13 4 4v16c0 1.87-2.13 4-4 4h-16c-1.906 0-4-2.094-4-4v-16z"></path>
</symbol>
<symbol id="icon-Icon-5" viewBox="0 0 32 32">
<path fill="#5d5dff" style="fill: var(--color1, #5d5dff)" d="M16 0c8.837 0 16 7.163 16 16s-7.163 16-16 16c-8.837 0-16-7.163-16-16s7.163-16 16-16z"></path>
<path fill="none" stroke="#cbccff" style="stroke: var(--color2, #cbccff)" stroke-linejoin="miter" stroke-linecap="square" stroke-miterlimit="4" stroke-width="1" d="M19 12v-1"></path>
<path fill="none" stroke="#cbccff" style="stroke: var(--color2, #cbccff)" stroke-linejoin="miter" stroke-linecap="square" stroke-miterlimit="4" stroke-width="1" d="M20.061 12.44l0.707-0.707"></path>
<path fill="none" stroke="#cbccff" style="stroke: var(--color2, #cbccff)" stroke-linejoin="miter" stroke-linecap="square" stroke-miterlimit="4" stroke-width="1" d="M20.5 13.5h1"></path>
<path fill="none" stroke="#cbccff" style="stroke: var(--color2, #cbccff)" stroke-linejoin="miter" stroke-linecap="square" stroke-miterlimit="4" stroke-width="1" d="M20.061 14.56l0.707 0.707"></path>
<path fill="none" stroke="#cbccff" style="stroke: var(--color2, #cbccff)" stroke-linejoin="miter" stroke-linecap="square" stroke-miterlimit="4" stroke-width="1" d="M19 15v1"></path>
<path fill="none" stroke="#cbccff" style="stroke: var(--color2, #cbccff)" stroke-linejoin="miter" stroke-linecap="square" stroke-miterlimit="4" stroke-width="1" d="M17.939 14.56l-0.707 0.707"></path>
<path fill="none" stroke="#cbccff" style="stroke: var(--color2, #cbccff)" stroke-linejoin="miter" stroke-linecap="square" stroke-miterlimit="4" stroke-width="1" d="M17.5 13.5h-1"></path>
<path fill="none" stroke="#cbccff" style="stroke: var(--color2, #cbccff)" stroke-linejoin="miter" stroke-linecap="square" stroke-miterlimit="4" stroke-width="1" d="M17.939 12.44l-0.707-0.707"></path>
<path fill="none" stroke="#cbccff" style="stroke: var(--color2, #cbccff)" stroke-linejoin="miter" stroke-linecap="square" stroke-miterlimit="4" stroke-width="1" d="M20.5 13.5c0 0.828-0.672 1.5-1.5 1.5s-1.5-0.672-1.5-1.5c0-0.828 0.672-1.5 1.5-1.5s1.5 0.672 1.5 1.5z"></path>
<path fill="none" stroke="#f4f4ff" style="stroke: var(--color3, #f4f4ff)" stroke-linejoin="miter" stroke-linecap="square" stroke-miterlimit="4" stroke-width="1" d="M14.93 11.59c-2.53 0.404-4.43 2.21-4.43 4.41 0 2.5 2.45 4.5 5.5 4.5 0.524 0.011 1.046-0.057 1.55-0.2l2.95 1.2-0.3-2.6c0.425-0.421 0.764-0.922 0.995-1.474"></path>
</symbol>
<symbol id="icon-Icon-4" viewBox="0 0 32 32">
<path fill="#5d5dff" style="fill: var(--color1, #5d5dff)" d="M16 0c8.837 0 16 7.163 16 16s-7.163 16-16 16c-8.837 0-16-7.163-16-16s7.163-16 16-16z"></path>
<path fill="none" stroke="#f4f4ff" style="stroke: var(--color3, #f4f4ff)" stroke-linejoin="miter" stroke-linecap="square" stroke-miterlimit="4" stroke-width="1" d="M14.5 21h5.114c0.439 0 0.827-0.286 0.956-0.706l1.384-4.5c0.093-0.303 0.037-0.633-0.151-0.888s-0.487-0.406-0.804-0.406h-3.5v-2c0-1.187-0.625-1.747-1.382-1.93-0.15-0.035-0.307 0-0.427 0.095s-0.191 0.241-0.191 0.394v1.941l-2.5 3"></path>
<path fill="none" stroke="#cbccff" style="stroke: var(--color2, #cbccff)" stroke-linejoin="miter" stroke-linecap="square" stroke-miterlimit="4" stroke-width="1" d="M11 15h2v6h-2v-6z"></path>
</symbol>
<symbol id="icon-Icon-3" viewBox="0 0 32 32">
<path fill="#5d5dff" style="fill: var(--color1, #5d5dff)" d="M16 0c8.837 0 16 7.163 16 16s-7.163 16-16 16c-8.837 0-16-7.163-16-16s7.163-16 16-16z"></path>
<path fill="none" stroke="#f4f4ff" style="stroke: var(--color3, #f4f4ff)" stroke-linejoin="miter" stroke-linecap="square" stroke-miterlimit="4" stroke-width="1" d="M19.5 21.5v-3.15c0.938-0.836 1.482-2.028 1.5-3.284 0.010-2.45-1.921-4.468-4.369-4.566-1.216-0.035-2.395 0.423-3.267 1.271s-1.364 2.013-1.364 3.229v0.5l-1 2.5 1 0.5v2c0 0.552 0.448 1 1 1h2c0.663 0 1.299-0.263 1.768-0.732s0.732-1.105 0.732-1.768v-2.5"></path>
<path fill="none" stroke="#cbccff" style="stroke: var(--color2, #cbccff)" stroke-linejoin="miter" stroke-linecap="square" stroke-miterlimit="4" stroke-width="1" d="M19 15c0 0.828-0.672 1.5-1.5 1.5s-1.5-0.672-1.5-1.5c0-0.828 0.672-1.5 1.5-1.5s1.5 0.672 1.5 1.5z"></path>
</symbol>
<symbol id="icon-Icon-2" viewBox="0 0 32 32">
<path fill="#5d5dff" style="fill: var(--color1, #5d5dff)" d="M16 0c8.837 0 16 7.163 16 16s-7.163 16-16 16c-8.837 0-16-7.163-16-16s7.163-16 16-16z"></path>
<path fill="none" stroke="#cbccff" style="stroke: var(--color2, #cbccff)" stroke-linejoin="miter" stroke-linecap="square" stroke-miterlimit="4" stroke-width="1" d="M18.75 16c0 3.038-1.231 5.5-2.75 5.5s-2.75-2.462-2.75-5.5c0-3.038 1.231-5.5 2.75-5.5s2.75 2.462 2.75 5.5z"></path>
<path fill="none" stroke="#f4f4ff" style="stroke: var(--color3, #f4f4ff)" stroke-linejoin="miter" stroke-linecap="square" stroke-miterlimit="4" stroke-width="1" d="M16 10.5v11"></path>
<path fill="none" stroke="#f4f4ff" style="stroke: var(--color3, #f4f4ff)" stroke-linejoin="miter" stroke-linecap="square" stroke-miterlimit="4" stroke-width="1" d="M10.5 16h11"></path>
<path fill="none" stroke="#f4f4ff" style="stroke: var(--color3, #f4f4ff)" stroke-linejoin="miter" stroke-linecap="square" stroke-miterlimit="4" stroke-width="1" d="M21.5 16c0 3.038-2.462 5.5-5.5 5.5s-5.5-2.462-5.5-5.5c0-3.038 2.462-5.5 5.5-5.5s5.5 2.462 5.5 5.5z"></path>
</symbol>
<symbol id="icon-Icon-1" viewBox="0 0 32 32">
<path fill="#5d5dff" style="fill: var(--color1, #5d5dff)" d="M16 0c8.837 0 16 7.163 16 16s-7.163 16-16 16c-8.837 0-16-7.163-16-16s7.163-16 16-16z"></path>
<path fill="none" stroke="#f4f4ff" style="stroke: var(--color3, #f4f4ff)" stroke-linejoin="miter" stroke-linecap="square" stroke-miterlimit="4" stroke-width="1" d="M10.5 11.5h11v9h-11v-9z"></path>
<path fill="none" stroke="#cbccff" style="stroke: var(--color2, #cbccff)" stroke-linejoin="miter" stroke-linecap="square" stroke-miterlimit="4" stroke-width="1" d="M13 14h6"></path>
<path fill="none" stroke="#cbccff" style="stroke: var(--color2, #cbccff)" stroke-linejoin="miter" stroke-linecap="square" stroke-miterlimit="4" stroke-width="1" d="M13 16h6"></path>
<path fill="none" stroke="#cbccff" style="stroke: var(--color2, #cbccff)" stroke-linejoin="miter" stroke-linecap="square" stroke-miterlimit="4" stroke-width="1" d="M13 18h2.5"></path>
</symbol>
<symbol id="icon-Icon" viewBox="0 0 32 32">
<path fill="#5d5dff" style="fill: var(--color1, #5d5dff)" d="M16 0c8.837 0 16 7.163 16 16s-7.163 16-16 16c-8.837 0-16-7.163-16-16s7.163-16 16-16z"></path>
<path fill="none" stroke="#f4f4ff" style="stroke: var(--color3, #f4f4ff)" stroke-linejoin="miter" stroke-linecap="square" stroke-miterlimit="4" stroke-width="1" d="M15 19.657l-2.090 1.099 0.59-3.441-2.5-2.437 3.455-0.502 1.545-3.13 1.545 3.13 3.455 0.502-1.5 1.462"></path>
<path fill="none" stroke="#cbccff" style="stroke: var(--color2, #cbccff)" stroke-linejoin="miter" stroke-linecap="square" stroke-miterlimit="4" stroke-width="1" d="M21.5 21h-4.5"></path>
<path fill="none" stroke="#cbccff" style="stroke: var(--color2, #cbccff)" stroke-linejoin="miter" stroke-linecap="square" stroke-miterlimit="4" stroke-width="1" d="M21.5 18.5h-4.5"></path>
</symbol>
</defs>
</svg>
